<?xml version="1.0" encoding="UTF-8" standalone="no"?><!-- Generator: Gravit.io --><svg xmlns="http://www.w3.org/2000/svg" xmlns:xlink="http://www.w3.org/1999/xlink" style="isolation:isolate" viewBox="0 0 84 92" width="84pt" height="92pt"><defs><clipPath id="_clipPath_oG9enTkRH0dkDTPuROHooq5BDu2LYXeT"><rect width="84" height="92"/></clipPath></defs><g clip-path="url(#_clipPath_oG9enTkRH0dkDTPuROHooq5BDu2LYXeT)"><path d=" M 71.903 57.541 Q 76.484 61.836 76.484 65.177 C 76.484 68.518 76.675 73.577 76.484 75.868 C 76.293 78.159 73.287 81.977 67.321 81.977 Q 61.355 81.977 47.466 81.977 Q 42.5 77.046 38.303 81.977 L 15.394 81.977 Q 7.757 82.198 7.757 75.868 Q 7.757 69.538 7.757 65.177 Q 7.545 62.128 10.812 59.068 Q 14.078 56.007 36.775 36.159 Q 43.362 30.575 48.993 36.159 Q 54.625 41.743 71.903 57.541 Z " fill="rgb(31,211,143)"/><path d=" M 29.139 69.759 L 33.721 74.341 Q 42.598 64.604 52.048 74.341 L 56.63 69.759 Q 43.266 55.536 29.139 69.759 Z " fill="rgb(40,41,43)"/><path d=" M 29.139 69.759 L 33.721 74.341 Q 42.598 64.604 52.048 74.341 L 56.63 69.759 Q 43.266 55.536 29.139 69.759 Z " fill="none"/><path d=" M 20.458 59.924 L 25.127 64.417 Q 41.655 49.562 60.248 63.739 L 64.74 59.07 Q 42.061 40.282 20.458 59.924 Z " fill="rgb(40,41,43)"/><path d=" M 10.812 52.959 L 6.23 46.85 Q 3.772 43.199 7.757 39.213 Q 11.742 35.228 36.775 13.25 Q 41.811 8.453 47.466 13.25 Q 53.122 18.046 78.012 39.213 Q 81.925 42.865 78.012 46.85 Q 74.098 50.835 72.809 51.909 L 49.328 30.36 Q 42.598 24.346 35.582 30.646 Q 28.566 36.946 10.812 52.959 Z " fill="rgb(31,211,143)"/></g></svg>